<svg xmlns="http://www.w3.org/2000/svg" version="1.1" xmlns:xlink="http://www.w3.org/1999/xlink" xmlns:svgjs="http://svgjs.dev/svgjs" viewBox="0 0 800 800" opacity="1"><defs><linearGradient x1="50%" y1="0%" x2="50%" y2="100%" id="uundulate-grad"><stop stop-color="hsl(0, 0%, 100%)" stop-opacity="1" offset="45%"></stop><stop stop-color="hsl(0, 0%, 100%)" stop-opacity="1" offset="100%"></stop></linearGradient></defs><g stroke-width="2" stroke="url(#uundulate-grad)" fill="none"><path d="M747.7192028022105 125.67329047556615C769.5791059458834 199.0493291031343 629.4439765729326 375.54294918504195 535.4220717676235 496.40433696990056C441.4001669623144 617.2657247547592 397.5101186276887 715.6340362566106 296.41405973672624 705.8079518428881C195.31800084576378 695.9818674291656 55.83243529566357 550.6531335596164 50.16098909100441 449.2391317840322C44.48954288634519 347.825130008448 189.9549622070724 282.57069753392955 269.1911179543615 219.0207433200842C348.4272737016506 155.47078910623884 330.80118566802366 163.64673756684812 430.4945366779923 144.19935155757366C530.1878876879609 124.75196554829927 725.8592996585372 52.29725184799804 747.7192028022105 125.67329047556615C769.5791059458834 199.0493291031343 629.4439765729326 375.54294918504195 535.4220717676235 496.40433696990056 "></path><path d="M735.3006598449886 135.47068276780317C756.379852162102 206.22614858724393 621.249548838185 376.41642509479766 530.585569204494 492.9613347444829C439.9215895708031 609.5062443941679 397.59904296241416 704.3614019138103 300.1135576032717 694.8862490862922C202.62807224412938 685.4110962587743 68.12413403510419 545.2726743131373 62.655239480611385 447.4806011723955C57.18634492611858 349.6885280316536 197.456570699677 286.7646110026536 273.8628637417057 225.48429801073132C350.2691567837344 164.20398501880902 333.2725718941656 172.08793532011077 429.4054460823497 153.3350988111676C525.5383202705337 134.58226230222436 714.2214675278752 64.71521694836247 735.3006598449886 135.47068276780317C756.379852162102 206.22614858724393 621.249548838185 376.41642509479766 530.585569204494 492.9613347444829 "></path><path d="M722.8821474053449 145.26804454246212C743.1806288958984 213.40293755377536 613.0551516210155 377.28987048697536 525.7490971589427 489.51830200148686C438.44304269686995 601.7467335159984 397.6879978147176 693.0887370534318 303.8130859873953 683.9645158121182C209.93817416007306 674.8402945708044 80.41586329212288 539.8921845490802 75.14952038779649 445.7220400431805C69.88317748347009 351.551895537281 204.95820970985972 290.9584939537996 278.53464004662806 231.94782218380027C352.1110703833965 172.93715041380102 335.74398863788576 180.52910255579536 428.31638600428516 162.47081554718335C520.8887833706847 144.4125285385714 702.5836659147913 77.13315153114883 722.8821474053449 145.26804454246212C743.1806288958984 213.40293755377536 613.0551516210155 377.28987048697536 525.7490971589427 489.51830200148686 "></path><path d="M710.4636044481231 155.06546735227727C729.9813751121169 220.5797875554631 604.8607238862679 378.1633769143093 520.9125945958133 486.0753302936473C436.9644653053588 593.9872836729853 397.77692214944307 681.8161332282097 307.5125838539409 673.0428435731004C217.2482455584386 664.2695539179912 92.70756203156344 534.5117558201792 87.64377077740346 443.9635399491219C82.57997952324348 353.4153240780647 212.45981820246425 295.1524379401018 283.20638583397226 238.41140739202552C353.9529534654804 181.67037684394933 338.2153748640278 188.97033082663614 427.2272954086427 171.6065933183554C516.2392159532575 154.24285581007467 690.9458337841293 89.55114714909143 710.4636044481231 155.06546735227727C729.9813751121169 220.5797875554631 604.8607238862679 378.1633769143093 520.9125945958133 486.0753302936473 "></path><path d="M698.045000455745 164.86282912693616C716.7820602931791 227.7565765219946 596.6662351163641 379.0368223064869 516.0760309975277 482.6322975506514C435.48582687869134 586.2277727948159 397.86578544901226 670.5434683678313 311.2120206853301 662.1211102989264C224.55825592164797 653.6987522300215 104.99919973584781 529.1312660561221 100.13796013185419 442.2049788199072C95.27672052786062 355.2786915836921 219.96136565991253 299.3463208912476 287.8780705861602 244.87493156509447C355.794775512408 190.40354223894133 340.6867000550135 197.41149806232073 426.13814377784377 180.74231005437122C511.58958750067404 164.07312204642164 679.307940618311 101.96908173187774 698.045000455745 164.86282912693616C716.7820602931791 227.7565765219946 596.6662351163641 379.0368223064869 516.0760309975277 482.6322975506514 "></path><path d="M685.6265185336795 174.66020616038412C703.5828675445538 234.93338074731508 588.4718684167727 379.91028295745355 511.23958946955463 479.18928006644455C434.0073105223364 578.4682771754356 397.95477081889385 659.270818766242 314.91157958703184 651.1993922835413C231.86838835516983 643.1279658008408 117.29095951044462 523.7507915508538 112.63227155661747 440.4464329494813C107.97358360279026 357.1420743481085 227.4630351876733 303.54021910118263 292.5498774086608 251.33847099695254C357.63671962964816 199.13672289272245 343.1581473163118 205.85268055679433 425.04911421735756 189.87804204917603C506.9400811184031 173.90340354155774 667.6701695228052 114.38703157345316 685.6265185336795 174.66020616038412C703.5828675445538 234.93338074731508 588.4718684167727 379.91028295745355 511.23958946955463 479.18928006644455 "></path><path d="M673.2079145413014 184.4575984526212C690.383552725616 242.11020023142476 580.2773796468689 380.7837588672094 506.40302587126894 475.74627784102677C432.52867209566887 570.7087968148442 398.04363411846305 647.9981844234417 318.61101641842106 640.2776895269456C239.17839871837913 632.5571946304494 129.582597214729 518.3703323043749 125.1264609110682 438.68790233784443C120.6703246074074 359.0054723713141 234.96458264512165 307.7341325699067 297.22156216084875 257.80202568759967C359.4785416765758 207.86991880529257 345.6294725072976 214.29387831005698 423.95996258655873 199.01378930276996C502.29045266581977 183.7337002954829 656.0322763569869 126.80499667381764 673.2079145413014 184.4575984526212C690.383552725616 242.11020023142476 580.2773796468689 380.7837588672094 506.40302587126894 475.74627784102677 "></path><path d="M660.7894326192359 194.25499074485822C677.1843599769907 249.2870197155343 572.0830129472776 381.6572347769651 501.56658434329574 472.303275615609C431.05015573931394 562.949316454253 398.13261948834474 636.7255500806415 322.3105753201228 629.3559867703495C246.48853115190093 621.9864234600578 141.8743569893258 512.9898730578958 137.62077233583142 436.9293717262078C133.36718768233703 360.8688703945196 242.4662521728825 311.9280460386308 301.8933689833492 264.26558037824674C361.32048579381603 216.60311471786275 348.1009197685959 222.7350760633197 422.8709330260724 208.14953655636384C497.64094628354883 193.56399704940804 644.3945052614811 139.22296177418212 660.7894326192359 194.25499074485822C677.1843599769907 249.2870197155343 572.0830129472776 381.6572347769651 501.56658434329574 472.303275615609 "></path><path d="M648.3708744032251 204.05235251951711C663.9850909344201 256.4638086820658 563.8885699537409 382.53068016914267 496.73006652137724 468.86024287261307C429.5715630890136 555.1898055760835 398.221528564281 625.4528852202629 326.0100579278792 618.4342534961756C253.79858729147747 611.4156217720881 154.16604046997736 507.6093832938386 150.11500746664933 435.17081059699285C146.06397446332136 362.7322379001471 249.96784540669796 316.1219289897767 306.56509951190435 270.72910455131574C363.16235361711085 225.33628011285475 350.57229073594874 231.17624329900423 421.78182717164066 217.28525329237965C492.9913636073326 203.39426328575502 632.75665787203 151.64089635696843 648.3708744032251 204.05235251951711C663.9850909344201 256.4638086820658 563.8885699537409 382.53068016914267 496.73006652137724 468.86024287261307 "></path><path d="M635.9523314460032 213.84974481175414C650.7858371506386 263.64062816617536 555.6941422189932 383.4041560788985 491.8935639582478 465.4172406471953C428.0929856975024 547.4303252154923 398.31045289900635 614.1802508774629 329.7095557944247 607.5125507395798C261.1086586898431 600.8448506016966 166.45773920941792 502.22892404735967 162.6092578562563 433.4122799853561C158.76077650309475 364.5956359233526 257.4694538993025 320.31584245850075 311.23684529924867 277.1926592419628C365.00423669919473 234.06947602542493 353.0436769620908 239.61744105226694 420.6927365759981 226.42100054597353C488.3417961899054 213.22456003968017 621.1188257413679 164.0588614573329 635.9523314460032 213.84974481175414C650.7858371506386 263.64062816617536 555.6941422189932 383.4041560788985 491.8935639582478 465.4172406471953 "></path><path d="M623.5337884887814 223.6471371039912C637.586583366857 270.817447650285 547.4997144842457 384.2776319886542 487.05706139511847 461.9742384217775C426.6144083059912 539.6708448549009 398.3993772337318 602.9076165346626 333.40905366097024 596.5908479829839C268.41873008820863 590.2740794313052 178.74943794885849 496.8484648008806 175.10350824586334 431.6537493737194C171.45757854286813 366.45903394655807 264.971062391907 324.50975592722483 315.9085910865929 283.65621393260994C366.84611978127873 242.80267193799506 355.51506318823283 248.0586388055296 419.6036459803555 235.55674779956746C483.6922287724782 223.05485679360532 609.4809936107058 176.4768265576974 623.5337884887814 223.6471371039912C637.586583366857 270.817447650285 547.4997144842457 384.2776319886542 487.05706139511847 461.9742384217775 "></path><path d="M611.1152455315596 233.4444988786501C624.3873295830754 277.99423661681647 539.3052867494981 385.1510773808318 482.220558831989 458.5312056787817C425.1358309144799 531.9113339767315 398.48830156845725 591.6349516742841 337.1085515275157 585.6691147088097C275.7288014865742 579.7032777433355 191.0411366882991 491.4679750368234 187.5977586354703 429.8951882445044C184.15438058264152 368.32240145218555 272.4726708845116 328.7036388783707 320.5803368739371 290.1197381056789C368.6880028633626 251.53583733298711 357.9864494143749 256.49980604121413 418.51455538471293 244.6924645355832C479.042661355051 232.88512302995235 597.8431614800438 188.89476114048375 611.1152455315596 233.4444988786501C624.3873295830754 277.99423661681647 539.3052867494981 385.1510773808318 482.220558831989 458.5312056787817 "></path><path d="M598.6967025743379 243.24189117088713C611.1880757992939 285.1710561009261 531.1108590147505 386.0245532905876 477.3840562688597 455.0882034533639C423.65725352296874 524.1518536161402 398.5772259031826 580.3623173314838 340.8080493940612 574.747411952214C283.0388728849398 569.1325065729441 203.33283542773967 486.08751579034436 200.0920090250773 428.1366576328677C196.8511826224149 370.18579947539104 279.9742793771162 332.8975523470948 325.25208266128135 296.583292796326C370.5298859454465 260.26903324555724 360.45783564051686 264.94100379447684 417.42546478907036 253.82821178917715C474.3930939376239 242.71541978387745 586.2053293493818 201.31272624084818 598.6967025743379 243.24189117088713C611.1880757992939 285.1710561009261 531.1108590147505 386.0245532905876 477.3840562688597 455.0882034533639 "></path><path d="M586.278159617116 253.03925294554602C597.9888220155124 292.34784506745757 522.9164312800029 386.8979986827652 472.54755370573025 451.645170710368C422.17867613145745 516.3923427379709 398.666150237908 569.0896524711055 344.50754726060666 563.8256786780399C290.3489442833054 558.5617048849743 215.6245341671803 480.70702602628717 212.58625941468426 426.37809650365284C209.5479846621883 372.0491669810185 287.47588786972074 337.09143529824075 329.92382844862556 303.04681696939497C372.3717690275304 269.0021986405493 362.92922186665885 273.3821710301614 416.3363741934278 262.96392852519296C469.7435265201966 252.54568602022448 574.5674972187197 213.73066082363454 586.278159617116 253.03925294554602C597.9888220155124 292.34784506745757 522.9164312800029 386.8979986827652 472.54755370573025 451.645170710368 "></path><path d="M573.8596014011052 262.83667575536117C584.7895529729417 299.52469506914525 514.7219882864663 387.7715051100991 467.71103588381175 448.20219900252846C420.7000834811572 508.63289289495765 398.7550593138444 557.8170486458835 348.2070298683631 552.9040064390222C297.6590004228819 547.9909642321609 227.9162176478318 475.32659729738634 225.08049454550218 424.61959640959424C222.24477144317262 373.91259552180213 294.9774811035362 341.2853792845429 334.59555897718076 309.5104021776202C374.2136368508253 277.73542507069754 365.40059283401183 281.8233993010022 415.24726833899615 272.09970629636496C465.09394384398047 262.37601329172776 562.9296498292686 226.14865644157715 573.8596014011052 262.83667575536117C584.7895529729417 299.52469506914525 514.7219882864663 387.7715051100991 467.71103588381175 448.20219900252846 "></path><path d="M561.4410737026724 272.6340375300201C571.5903144479491 306.70148403567674 506.52757581050776 388.64495050227674 462.87454857947137 444.75916625953255C419.221521348435 500.87338201678824 398.8439989073588 546.544383785505 351.90654299369766 541.9822731648482C304.9690870800365 537.4201625441913 240.2079316460614 469.94610753332915 237.57476019389827 422.8610352803794C234.94158874173507 375.77596302742955 302.47910485492986 345.47926223568885 339.267320023314 315.9739263506892C376.05553519169825 286.4685904656896 367.8719943189429 290.26456653668674 414.1581930021425 281.23542303238077C460.44439168534234 272.20627952807473 551.2918329573956 238.56659102436345 561.4410737026724 272.6340375300201C571.5903144479491 306.70148403567674 506.52757581050776 388.64495050227674 462.87454857947137 444.75916625953255 "></path><path d="M549.0225460042398 282.4314145634681C558.3910759229568 313.8782882609973 498.3331633345492 389.51841115324345 458.038061275131 441.3161487753257C417.74295921571286 493.1138863974079 398.9329385008733 535.2717341839157 355.60605611903225 531.0605551494632C312.2791737371912 526.8493761150107 252.4996456442911 464.56563302806103 250.0690258422943 421.1024894099536C247.63840604029753 377.63934579184604 309.98072860632345 349.6731604456238 343.9390810694473 322.43746578254724C377.8974335325712 295.20177111947066 370.34339580387393 298.70574903116034 413.06911766528907 290.3711550271856C455.7948395267042 282.0365610232108 539.6540160855227 250.98454086593887 549.0225460042398 282.4314145634681C558.3910759229568 313.8782882609973 498.3331633345492 389.51841115324345 458.038061275131 441.3161487753257 "></path><path d="M536.6039877882288 292.2288068557051C545.1918068803861 321.0551077451069 490.1387203410126 390.3918870629992 453.2015434532126 437.8731465499079C416.26436656541256 485.3544060368166 399.02184757680965 523.9990998411154 359.30553872678865 520.1388523928673C319.5892298767677 516.2786049446192 264.7913291249426 459.18517378158197 262.5632609731122 419.34395879831675C260.3351928212818 379.5027438150516 317.4823218401389 353.8670739143479 348.6108115980025 328.90102047319436C379.739301355866 303.93496703204084 372.8147667712269 307.14694678442305 411.9800118108575 299.5069022807795C451.14525685048807 291.866857777136 528.0161686960716 263.40250596630335 536.6039877882288 292.2288068557051C545.1918068803861 321.0551077451069 490.1387203410126 390.3918870629992 453.2015434532126 437.8731465499079 "></path><path d="M524.185429572218 302.0261991479422C531.9925378378155 328.23192722921647 481.9442773474759 391.26536297275493 448.3650256312941 434.43014432449013C414.78577391511226 477.59492567622533 399.110756652746 512.7264654983151 363.00502133454506 509.2171496362714C326.8992860163442 505.70783377422765 277.08301260559415 453.8047145351029 275.05749610393013 417.58542818668C273.0319796022661 381.36614183825714 324.98391507395445 358.06098738307196 353.28254212655764 335.36457516384144C381.5811691791609 312.66816294461097 375.28613773857984 315.5881445376857 410.8909059564258 308.6426495343734C446.4956741742717 301.69715453106113 516.3783213066205 275.82047106666784 524.185429572218 302.0261991479422C531.9925378378155 328.23192722921647 481.9442773474759 391.26536297275493 448.3650256312941 434.43014432449013 "></path><path d="M511.7668866149961 311.8235609226011C518.793284054034 335.40871619574796 473.7498496127283 392.1388083649326 443.5285230681647 430.9871115814942C413.3071965236011 469.8354147980559 399.19968098747137 501.45380063793675 366.7045192010906 498.2954163620974C334.20935741470976 495.13703208625805 289.3747113450347 448.4242247710458 287.5517464935371 415.82686705746517C285.7287816420395 383.2295093438845 332.485523566559 362.25487033421786 357.9542879139019 341.82809933691044C383.42305226124483 321.401328339603 377.7575239647219 324.0293117733703 409.8018153607832 317.7783662703892C441.84610675684456 311.5274207674081 504.7404891759584 288.23840564945414 511.7668866149961 311.8235609226011C518.793284054034 335.40871619574796 473.7498496127283 392.1388083649326 443.5285230681647 430.9871115814942 "></path><path d="M499.3483436577744 321.6209532148381C505.59403027025246 342.58553567985757 465.55542187798073 393.01228427468834 438.6920205050353 427.5441093560765C411.82861913208984 462.07593443746464 399.28860532219676 490.18116629513645 370.40401706763606 487.3737136055015C341.51942881307536 484.56626091586656 301.66641008447533 443.0437655245667 300.0459968831441 414.0683364458284C298.4255836818129 385.09290736709005 339.98713205916357 366.44878380294193 362.6260337012461 348.2916540275575C385.2649353433287 330.13452425217315 380.22891019086387 332.47050952663295 408.71272476514065 326.91411352398313C437.1965393394174 321.35771752133326 493.1026570452964 300.6563707498186 499.3483436577744 321.6209532148381C505.59403027025246 342.58553567985757 465.55542187798073 393.01228427468834 438.6920205050353 427.5441093560765 "></path><path d="M486.92983121813074 331.4183455070751C492.39480700404897 349.7623551639672 457.36102466081127 393.88576018444405 433.855548459484 424.10110713065876C410.35007225815673 454.31645407687336 399.37756017450033 478.90853195233626 374.1035454517597 476.4520108489056C348.8295307290191 473.99548974547497 313.958139341494 437.6633062780877 312.54027779032924 412.30980583419165C311.1224162391644 386.9563053902956 347.4887710693462 370.64269727166595 367.2978100061685 354.75520871820464C387.1068489429908 338.86772016474333 382.70032693458404 340.9117072798956 407.6236646870762 336.049860777577C432.54700243956836 331.1880142752584 481.4648554322124 313.0743358501831 486.92983121813074 331.4183455070751C492.39480700404897 349.7623551639672 457.36102466081127 393.88576018444405 433.855548459484 424.10110713065876 "></path><path d="M474.5112730021199 341.21570728173407C479.1955379614784 356.9391441304987 449.1665816672746 394.7592055766217 429.0190306375655 420.65807438766285C408.87147960785643 446.55694319870395 399.46646925043666 467.63586709195783 377.8030280595161 465.5302775747316C356.1395868685956 463.42468805750536 326.2498228221455 432.2828165140305 325.03451292114715 410.5512447049768C323.81920302014873 388.819672895923 354.99036430316175 374.8365802228119 371.96954053472365 361.21873289127365C388.9487167662856 347.60088555973533 385.17169790193697 349.3528745155802 406.5345588326445 345.1855775135928C427.8974197633521 341.01828051160544 469.82700804276135 325.49227043296946 474.5112730021199 341.21570728173407C479.1955379614784 356.9391441304987 449.1665816672746 394.7592055766217 429.0190306375655 420.65807438766285 "></path><path d="M462.0927300448981 351.0130995739711C465.9962841776968 364.11596361460823 440.972153932527 395.63268148637746 424.1825280744361 417.21507216224506C407.3929022163452 438.79746283811266 399.55539358516205 456.36323274915753 381.5025259260616 454.6085748181357C363.44965826696114 452.8539168871138 338.54152156158614 426.90235726755145 337.52876331075413 408.79271409334C336.5160050599221 390.68307091912857 362.4919727957663 379.030493691536 376.6412863220679 367.6822875819207C390.79059984836954 356.3340814723055 387.643084128079 357.79407226884285 405.44546823700193 354.3213247671867C423.2478523459249 350.84857726553054 458.1891759120993 337.9102355333339 462.0927300448981 351.0130995739711C465.9962841776968 364.11596361460823 440.972153932527 395.63268148637746 424.1825280744361 417.21507216224506 "></path><path d="M449.6741718288872 360.81047660741905C452.79701513512623 371.2927678399288 432.77771093899037 396.50614213734417 419.34601025251766 413.7720546780382C405.9143095660449 431.0379672187323 399.6443026610984 445.0905831475682 385.20200853381806 443.68685680275075C370.7597144065377 442.2831304579333 350.83320504223764 421.5218827622833 350.02299844157204 407.0341682229142C349.21279184090645 392.54645368354505 369.99356602958176 383.22439190147094 381.31301685062306 374.1458270137788C392.63246767166436 365.0672621260866 390.11445509543194 366.23525476331645 404.3563623825703 363.45705676199157C418.5982696697087 360.6788587606666 446.5513285226482 350.3281853749093 449.6741718288872 360.81047660741905C452.79701513512623 371.2927678399288 432.77771093899037 396.50614213734417 419.34601025251766 413.7720546780382 "></path><path d="M437.25564413045447 370.607853640867C439.59777661013374 378.46957206524934 424.58329846303184 397.3796027883109 414.5095229481773 410.3290371938314C404.4357474333227 423.278471599352 399.73324225461283 433.8179335459789 388.9015216591526 432.7651387873658C378.0698010636923 431.7123440287527 363.1249190404673 416.14140825701526 362.5172640899681 405.27562235248837C361.9096091394689 394.40983644796154 377.4951897809754 387.41829011140595 385.9847778967564 380.6093664456368C394.47436601253736 373.8004427798677 392.58585658036304 374.6764372577901 403.2672870457168 372.5927887567964C413.9487175110706 370.5091402558027 434.9135116507752 362.74613521648473 437.25564413045447 370.607853640867C439.59777661013374 378.46957206524934 424.58329846303184 397.3796027883109 414.5095229481773 410.3290371938314 "></path><path d="M424.8370859144436 380.405230674315C426.3985075675631 385.64637629056983 416.3888554694952 398.2530634392775 409.67300512625883 406.8860197096246C402.9571547830225 415.51897597997163 399.8221513305492 422.5452839443896 392.601004266909 421.84342077198085C385.37985720326884 421.1415575995721 375.4166025211188 410.76093375174713 375.01149922078605 403.5170764820626C374.6063959204532 396.27321921237797 384.9967830147909 391.61218832134097 390.65650842531153 387.07290587749486C396.3162338358322 382.53362343364876 395.05722754771597 383.1176197522637 402.17818119128515 381.72852075160125C409.2991348348543 380.3394217509388 423.2756642613241 375.16408505806015 424.8370859144436 380.405230674315C426.3985075675631 385.64637629056983 416.3888554694952 398.2530634392775 409.67300512625883 406.8860197096246 "></path><path d="M412.41855821601087 390.20262296655204C413.1992690425706 392.82319577467945 408.19444299353665 399.1265393490333 404.83651782191845 403.44301748420685C401.4785926503003 407.75949561938035 399.91109092406367 411.2726496015893 396.3005173922436 410.92171801538495C392.68994386042345 410.5707864291806 387.7083165193485 405.3804745052681 387.5057648691821 401.7585458704258C387.3032132190157 398.1366172355835 392.49840676618453 395.806101790065 395.32826947144486 393.53646056814193C398.1581321767052 391.2668193462189 397.5286290326471 391.5588175055264 401.08910585443164 390.86426800519513C404.64958267621626 390.1697185048639 411.6378473894511 387.5820501584246 412.41855821601087 390.20262296655204C413.1992690425706 392.82319577467945 408.19444299353665 399.1265393490333 404.83651782191845 403.44301748420685 "></path></g></svg>